<?xml version="1.0" encoding="UTF-8"?>
<svg xmlns="http://www.w3.org/2000/svg" width="975" height="655" viewBox="0 -30 975 655">
  <rect width="100%" height="100%" fill="#ffffff"/>
  <defs>
    <marker id="arrowhead" markerWidth="10" markerHeight="10" refX="9" refY="3" orient="auto">
      <polygon points="0 0, 10 3, 0 6" fill="#1e3a5f" />
    </marker>
  </defs>
  <text x="600" y="52" font-family="sans-serif" font-size="32" fill="#1e40af" text-anchor="middle">IronClaw Security Architecture</text>
  <text x="600" y="83" font-family="sans-serif" font-size="18" fill="#64748b" text-anchor="middle">Defense in Depth</text>
  <rect x="50" y="120" width="150" height="400" fill="#dbeafe" stroke="#1e3a5f" stroke-width="2" rx="8"/>
  <text x="175" y="328.5" font-family="sans-serif" font-size="16" fill="#1e40af" text-anchor="middle">Input Layer</text>
  <ellipse cx="125" cy="210" rx="60" ry="30" fill="#ffffff" stroke="#5B6FFF" stroke-width="2"/>
  <text x="125" y="211" font-family="sans-serif" font-size="14" fill="#374151" text-anchor="middle">Channels</text>
  <text x="180" y="262" font-family="sans-serif" font-size="12" fill="#64748b" text-anchor="middle">TUI
Web
Telegram
Webhook</text>
  <rect x="250" y="120" width="180" height="400" fill="#fef3c7" stroke="#1e3a5f" stroke-width="2" rx="8"/>
  <text x="415" y="328.5" font-family="sans-serif" font-size="16" fill="#b45309" text-anchor="middle">Layer 1: Safety</text>
  <rect x="275" y="180" width="130" height="50" fill="#ffffff" stroke="#b45309" stroke-width="2" rx="8"/>
  <text x="390" y="211.5" font-family="sans-serif" font-size="14" fill="#374151" text-anchor="middle">Sanitizer</text>
  <rect x="275" y="260" width="130" height="50" fill="#ffffff" stroke="#b45309" stroke-width="2" rx="8"/>
  <text x="390" y="291.5" font-family="sans-serif" font-size="14" fill="#374151" text-anchor="middle">Validator</text>
  <rect x="275" y="340" width="130" height="50" fill="#ffffff" stroke="#b45309" stroke-width="2" rx="8"/>
  <text x="395" y="371.5" font-family="sans-serif" font-size="14" fill="#374151" text-anchor="middle">Policy Engine</text>
  <rect x="275" y="420" width="130" height="70" fill="#ffffff" stroke="#b45309" stroke-width="2" rx="8"/>
  <text x="395" y="454" font-family="sans-serif" font-size="14" fill="#374151" text-anchor="middle">Leak
Detector</text>
  <rect x="480" y="120" width="180" height="120" fill="#a7f3d0" stroke="#1e3a5f" stroke-width="2" rx="8"/>
  <text x="645" y="188.5" font-family="sans-serif" font-size="16" fill="#047857" text-anchor="middle">Layer 2: WASM</text>
  <text x="180" y="182" font-family="sans-serif" font-size="12" fill="#374151" text-anchor="middle">wasmtime runtime
Memory limits
Fuel metering</text>
  <rect x="480" y="270" width="180" height="120" fill="#93c5fd" stroke="#1e3a5f" stroke-width="2" rx="8"/>
  <text x="645" y="338.5" font-family="sans-serif" font-size="16" fill="#1e40af" text-anchor="middle">Layer 3: Docker</text>
  <text x="180" y="332" font-family="sans-serif" font-size="12" fill="#374151" text-anchor="middle">Container isolation
Network proxy
Credential injection</text>
  <rect x="480" y="420" width="180" height="100" fill="#fecaca" stroke="#1e3a5f" stroke-width="2" rx="8"/>
  <text x="645" y="478.5" font-family="sans-serif" font-size="16" fill="#b91c1c" text-anchor="middle">Layer 4: Secrets</text>
  <text x="180" y="482" font-family="sans-serif" font-size="12" fill="#374151" text-anchor="middle">AES-256-GCM
Zero exposure</text>
  <rect x="730" y="120" width="150" height="400" fill="#ddd6fe" stroke="#1e3a5f" stroke-width="2" rx="8"/>
  <text x="855" y="328.5" font-family="sans-serif" font-size="16" fill="#6d28d9" text-anchor="middle">Output Layer</text>
  <ellipse cx="805" cy="320" rx="60" ry="40" fill="#ffffff" stroke="#6d28d9" stroke-width="2"/>
  <text x="805" y="321" font-family="sans-serif" font-size="14" fill="#374151" text-anchor="middle">LLM Provider</text>
  <path d="M 200 320 L 250 320" fill="none" stroke="#1e3a5f" stroke-width="3" marker-end="url(#arrowhead)"/>
  <path d="M 430 180 L 480 180" fill="none" stroke="#1e3a5f" stroke-width="2" marker-end="url(#arrowhead)"/>
  <path d="M 430 330 L 480 330" fill="none" stroke="#1e3a5f" stroke-width="2" marker-end="url(#arrowhead)"/>
  <path d="M 430 470 L 480 470" fill="none" stroke="#1e3a5f" stroke-width="2" marker-end="url(#arrowhead)"/>
  <path d="M 660 180 L 695 180 L 695 280 L 730 280" fill="none" stroke="#1e3a5f" stroke-width="2" marker-end="url(#arrowhead)"/>
  <path d="M 660 330 L 730 330" fill="none" stroke="#1e3a5f" stroke-width="2" marker-end="url(#arrowhead)"/>
  <path d="M 660 470 L 695 470 L 695 370 L 730 370" fill="none" stroke="#1e3a5f" stroke-width="2" marker-end="url(#arrowhead)"/>
  <text x="440" y="569" font-family="sans-serif" font-size="14" fill="#64748b" text-anchor="middle">Prompt Injection Defense</text>
  <text x="630" y="569" font-family="sans-serif" font-size="14" fill="#64748b" text-anchor="middle">Sandboxed Execution</text>
  <text x="865" y="569" font-family="sans-serif" font-size="14" fill="#64748b" text-anchor="middle">External Services</text>
</svg>